# AST/ASF file generated using VICON BodyLanguage
# -----------------------------------------------
:version 1.10
:name VICON
:units
  mass 1.0
  length 0.45
  angle deg
:documentation
   .ast/.asf automatically generated from VICON data using
   VICON BodyBuilder and BodyLanguage model FoxedUp or BRILLIANT.MOD
:root
   order TX TY TZ RX RY RZ
   axis XYZ
   position 0 0 0  
   orientation 0 0 0 
:bonedata
  begin
     id 1 
     name lhipjoint
     direction 0.54267 -0.795011 0.271047 
     length 2.39899 
     axis 0 0 0  XYZ
  end
  begin
     id 2 
     name lfemur
     direction 0.34202 -0.939693 0  
     length 7.49701  
     axis 0 0 20  XYZ
    dof rx ry rz
    limits (-160.0 20.0)
           (-70.0 70.0)
           (-60.0 70.0)
  end
  begin
     id 3 
     name ltibia
     direction 0.34202 -0.939693 0   
     length 8.1668   
     axis 0 0 20   XYZ
    dof rx
    limits (-10.0 170.0)
  end
  begin
     id 4 
     name lfoot
     direction 0.0736283 -0.202292 0.976554   
     length 2.13544   
     axis -90 7.62852e-016 20   XYZ
    dof rx rz
    limits (-45.0 90.0)
           (-70.0 20.0)
  end
  begin
     id 5 
     name ltoes
     direction 1.53557e-011 -4.22024e-011 1   
     length 1.07411   
     axis -90 7.62852e-016 20   XYZ
    dof rx
    limits (-90.0 20.0)
  end
  begin
     id 6 
     name rhipjoint
     direction -0.538061 -0.797813 0.272002   
     length 2.39057  
     axis 0 0 0  XYZ 
  end
  begin
     id 7 
     name rfemur
     direction -0.34202 -0.939693 0   
     length 7.50152   
     axis 0 0 -20   XYZ
    dof rx ry rz
    limits (-160.0 20.0)
           (-70.0 70.0)
           (-70.0 60.0)
  end
  begin
     id 8 
     name rtibia
     direction -0.34202 -0.939693 0   
     length 8.05793   
     axis 0 0 -20   XYZ
    dof rx
    limits (-10.0 170.0)
 end
 begin
     id 9 
     name rfoot
     direction -0.0765195 -0.210236 0.974652   
     length 2.28698  
     axis -90 -7.62852e-016 -20   XYZ
    dof rx rz
    limits (-45.0 90.0)
           (-20.0 70.0)
  end
  begin
     id 10 
     name rtoes
     direction -1.53542e-011 -4.21847e-011 1   
     length 1.14762   
     axis -90 -7.62852e-016 -20   XYZ
    dof rx
    limits (-90.0 20.0)
  end
  begin
     id 11 
     name lowerback
     direction -0.0217239 0.996592 -0.0795765   
     length 2.08176   
     axis 0 0 0   XYZ
    dof rx ry rz
    limits (-20.0 45.0)
           (-30.0 30.0)
           (-30.0 30.0)
  end
  begin
     id 12 
     name upperback
     direction -0.00563773 0.999651 -0.0258155   
     length 2.08898   
     axis 0 0 0   XYZ
    dof rx ry rz
    limits (-20.0 45.0)
           (-30.0 30.0)
           (-30.0 30.0)
  end
  begin
     id 13 
     name thorax
     direction 0.0032706 0.999923 0.0119599   
     length 2.0968   
     axis 0 0 0   XYZ
    dof rx ry rz
    limits (-20.0 45.0)
           (-30.0 30.0)
           (-30.0 30.0)
  end
  begin
     id 14 
     name lowerneck
     direction -0.0285886 0.99568 0.0883427   
     length 1.81272   
     axis 0 0 0   XYZ
    dof rx ry rz
    limits (-20.0 45.0)
           (-30.0 30.0)
           (-30.0 30.0)
  end
  begin
     id 15 
     name upperneck
     direction 0.0807535 0.97985 -0.18268   
     length 1.82518   
     axis 0 0 0   XYZ
    dof rx ry rz
    limits (-20.0 45.0)
           (-30.0 30.0)
           (-30.0 30.0)
  end
  begin
     id 16
     name head
     direction 0.0236605 0.997053 -0.0729767  
     length 1.84443  
     axis 0 0 0   XYZ
    dof rx ry rz
    limits (-20.0 45.0)
           (-30.0 30.0)
           (-30.0 30.0)
  end
  begin
     id 17 
     name lclavicle
     direction 0.918986 0.39378 -0.0200683  
     length 3.27822  
     axis 0 0 0   XYZ
    dof ry rz
    limits (-20.0 10.0)
           (0.0 20.0)
  end
  begin
     id 18 
     name lhumerus
     direction 1 -4.4897e-011 2.09544e-027   
     length 5.5568   
     axis 180 -30 -90   XYZ
    dof rx ry rz
    limits (-60.0 90.0)
           (-90.0 90.0)
           (-90.0 90.0)
  end
  begin
     id 19
     name lradius
     direction 1 -4.48957e-011 -1.27696e-026   
     length 3.63979   
     axis 180 -30 -90   XYZ
    dof rx
    limits (-10.0 170.0)
  end
  begin
     id 20
     name lwrist
     direction 1 -4.49001e-011 -1.49001e-026   
     length 1.8199   
     axis 9.0955e-015 90 90   XYZ
    dof ry
    limits (-180.0 0.0)
 end
  begin
     id 21 
     name lhand
     direction 1 -4.48709e-011 -2.9758e-026   
     length 0.569419   
     axis 1.90115e-014 90 90   XYZ
    dof rx rz
    limits (-90.0 90.0)
           (-45.0 45.0)
  end
  begin
     id 22 
     name lfingers
     direction 1 -4.49175e-011 -5.96505e-026   
     length 0.45908   
     axis 3.80223e-014 90 90   XYZ
    dof rx
    limits (0.0 90.0)
  end
  begin
     id 23
     name lthumb
     direction 0.707107 -6.34864e-011 0.707107   
     length 0.65915   
     axis -90 45 -3.84942e-014   XYZ
    dof rx rz
    limits (-45.0 45.0)
           (-45.0 45.0)
  end
  begin
     id 24 
     name rclavicle
     direction -0.911913 0.396426 -0.106115   
     length 3.46301  
     axis 0 0 0   XYZ 
    dof ry rz
    limits (-10.0 20.0)
           (-20.0 0.0)
  end
  begin
     id 25 
     name rhumerus
     direction -1 -4.48965e-011 7.78516e-028  
     length 5.34339   
     axis 180 30 90   XYZ
    dof rx ry rz
    limits (-90.0 60.0)
           (-90.0 90.0)
           (-90.0 90.0)
  end
  begin
     id 26 
     name rradius
     direction -1 -4.48948e-011 -5.79823e-027   
     length 3.65101   
     axis 180 30 90   XYZ
    dof rx
    limits (-10.0 170.0)
  end
  begin
     id 27 
     name rwrist
     direction -1 -4.48995e-011 -1.48996e-026   
     length 1.8255   
     axis 9.0955e-015 -90 -90   XYZ
    dof ry
    limits (-180.0 0.0)
  end
  begin
     id 28
     name rhand
     direction -1 -4.48957e-011 -2.97937e-026   
     length 0.694249   
     axis 1.90115e-014 -90 -90   XYZ
    dof rx rz
    limits (-90.0 90.0)
           (-45.0 45.0)
  end
  begin
     id 29
     name rfingers
     direction -1 -4.4898e-011 -5.95943e-026   
     length 0.559721   
     axis 3.80223e-014 -90 -90   XYZ
    dof rx
    limits (0.0 90.0)
  end
  begin
     id 30
     name rthumb
     direction -0.707107 -6.34969e-011 0.707107   
     length 0.803651   
     axis -90 -45 3.84942e-014   XYZ
    dof rx rz
    limits (-45.0 45.0)
           (-45.0 45.0)
  end
:hierarchy
  begin
    root lhipjoint rhipjoint lowerback
    lhipjoint lfemur
    lfemur ltibia
    ltibia lfoot
    lfoot ltoes
    rhipjoint rfemur
    rfemur rtibia
    rtibia rfoot
    rfoot rtoes
    lowerback upperback
    upperback thorax
    thorax lowerneck lclavicle rclavicle
    lowerneck upperneck
    upperneck head
    lclavicle lhumerus
    lhumerus lradius
    lradius lwrist
    lwrist lhand lthumb
    lhand lfingers
    rclavicle rhumerus
    rhumerus rradius
    rradius rwrist
    rwrist rhand rthumb
    rhand rfingers
  end

#!OML:ASF H:\Terrain\Walking\May29\JustinRory\rory.ASF
:FULLY-SPECIFIED
:DEGREES
317
root 11.4562 18.2836 -4.84086 288.511 -84.9066 75.4856
lowerback 14.1491 4.05113 -6.84498
upperback 1.50978 4.07462 -1.57412
thorax -6.69194 2.10109 1.37103
lowerneck 3.91229 17.4095 7.57385
upperneck 20.6556 27.0179 -20.7385
head 10.0166 11.8297 -5.7442
rclavicle -1.65799e-014 -8.00108e-015
rhumerus -41.6212 -7.74586 -75.3149
rradius 38.8242
rwrist 2.03578
rhand -4.1301 388.726
rfingers 7.12502
rthumb 21.629 -0.0860416
lclavicle -1.65799e-014 -8.00108e-015
lhumerus -30.5865 0.75779 83.4166
lradius 37.3978
lwrist 5.34899
lhand -21.1067 23.4412
lfingers 7.12502
lthumb 5.27128 53.3557
rfemur -19.917 -3.95312 9.1256
rtibia 51.2139
rfoot -19.5421 -24.6121
rtoes 19.757
lfemur -19.3372 -0.202825 -19.4551
ltibia 28.5438
lfoot -10.2868 0.408321
ltoes 6.11925
318
root 11.4331 18.2793 -4.91927 295.16 -84.7948 68.8525
lowerback 13.9905 3.9764 -6.85475
upperback 1.43269 4.00392 -1.42028
thorax -6.69275 2.07455 1.56056
lowerneck 3.78412 17.3091 7.92931
upperneck 21.0049 27.0047 -20.9182
head 10.2529 11.7971 -5.84628
rclavicle 2.14315e-014 -1.86858e-014
rhumerus -41.631 -7.84187 -75.1928
rradius 38.8086
rwrist 2.19527
rhand -4.18214 389.285
rfingers 7.12502
rthumb 21.579 0.467677
lclavicle 2.14315e-014 -1.86858e-014
lhumerus -31.0915 1.00846 83.2279
lradius 37.4955
lwrist 4.97465
lhand -21.0565 22.9254
lfingers 7.12502
lthumb 5.31979 52.8386
rfemur -19.541 -2.7636 8.75481
rtibia 49.9309
rfoot -19.5006 -24.6973
rtoes 21.0882
lfemur -19.3075 -0.452352 -19.0791
ltibia 28.4387
lfoot -10.163 0.0521703
ltoes 6.99419
319
root 11.4106 18.2696 -4.98637 301.246 -84.6955 62.7767
lowerback 13.7907 3.84392 -6.59212
upperback 1.39989 3.90068 -1.30365
thorax -6.59843 2.0213 1.5703
lowerneck 3.70962 17.2752 8.10183
upperneck 21.0145 27.0046 -21.036
head 10.3166 11.7967 -5.90116
rclavicle -3.98066e-014 3.53837e-014
rhumerus -41.3117 -7.67352 -75.2863
rradius 38.6389
rwrist 1.84412
rhand -4.28195 389.669
rfingers 7.12502
rthumb 21.4832 0.840698
lclavicle -3.98066e-014 3.53837e-014
lhumerus -31.4591 0.416831 83.1328
lradius 37.2552
lwrist 5.66399
lhand -21.2547 22.4628
lfingers 7.12502
lthumb 5.12843 52.3807
rfemur -19.1231 -1.54688 8.39934
rtibia 48.5205
rfoot -19.1967 -24.7537
rtoes 22.3841
lfemur -19.3094 -0.551655 -18.7025
ltibia 28.3569
lfoot -10.0597 -0.211017
ltoes 6.10976
320
root 11.3889 18.2593 -5.05726 306.455 -84.4994 57.5668
lowerback 13.6109 3.72199 -6.34365
upperback 1.38172 3.80266 -1.22228
thorax -6.4989 1.96933 1.54804
lowerneck 3.59518 17.2618 7.85502
upperneck 20.959 26.9314 -20.7908
head 10.222 11.7616 -5.78435
rclavicle -4.94228e-014 6.16232e-015
rhumerus -41.0826 -7.51628 -75.3842
rradius 38.597
rwrist 1.77718
rhand -4.13717 389.639
rfingers 7.12502
rthumb 21.6222 0.826258
lclavicle -4.94228e-014 6.16232e-015
lhumerus -31.6241 -0.0846926 82.9976
lradius 36.8016
lwrist 6.37717
lhand -22.0157 22.0789
lfingers 7.12502
lthumb 4.39365 52.0133
rfemur -18.6404 -0.40926 7.986
rtibia 47.0256
rfoot -18.8537 -24.8779
rtoes 22.135
lfemur -19.3235 -0.623808 -18.3944
ltibia 28.3239
lfoot -9.98052 -0.475793
ltoes 4.91939
321
root 11.3688 18.2561 -5.12537 308.449 -84.1105 55.5791
lowerback 13.5489 3.67389 -6.48072
upperback 1.28814 3.72678 -1.17876
thorax -6.57053 1.94178 1.68535
lowerneck 3.65478 17.2262 7.7456
upperneck 20.893 26.8513 -20.6893
head 10.137 11.7356 -5.75422
rclavicle 7.05686e-015 2.68359e-015
rhumerus -41.1197 -7.87669 -75.1235
rradius 38.6702
rwrist 2.62547
rhand -4.25688 390.084
rfingers 7.12502
rthumb 21.5073 1.2581
lclavicle 7.05686e-015 2.68359e-015
lhumerus -32.0661 0.885122 82.6322
lradius 36.8124
lwrist 5.76924
lhand -22.9752 21.4845
lfingers 7.12502
lthumb 3.46705 51.4361
rfemur -18.1842 0.888182 7.17501
rtibia 45.5562
rfoot -18.7511 -24.5542
rtoes 21.0691
lfemur -19.2172 -0.672948 -18.4185
ltibia 28.1792
lfoot -9.85758 -0.738659
ltoes 3.99137
322
root 11.3439 18.2486 -5.18515 308.589 -83.799 55.389
lowerback 13.515 3.82524 -6.46588
upperback 1.17429 3.92621 -1.23947
thorax -6.6847 2.04334 1.56919
lowerneck 3.7356 17.0291 7.9496
upperneck 21.0669 26.5952 -20.5813
head 10.15 11.6352 -5.79726
rclavicle -1.78906e-015 1.17283e-014
rhumerus -41.3194 -8.04503 -75.0144
rradius 38.845
rwrist 2.51917
rhand -4.52775 390.435
rfingers 7.12502
rthumb 21.2471 1.57998
lclavicle -1.78906e-015 1.17283e-014
lhumerus -32.6338 1.40126 82.3558
lradius 37.0072
lwrist 4.8129
lhand -23.8107 20.8891
lfingers 7.12502
lthumb 2.6602 50.8522
rfemur -17.6834 2.37329 6.25403
rtibia 44.0644
rfoot -18.5543 -23.9022
rtoes 19.408
lfemur -19.0212 -0.994222 -18.4667
ltibia 28.095
lfoot -9.96677 -0.675591
ltoes 2.29926
323
root 11.3028 18.2224 -5.25998 311.293 -82.9891 52.6532
lowerback 13.2063 3.85086 -6.62415
upperback 1.18095 3.95645 -1.34561
thorax -6.5115 2.05808 1.5571
lowerneck 3.40219 16.816 7.89785
upperneck 21.5744 26.3112 -20.1249
head 10.2619 11.4722 -5.65586
rclavicle 4.07012e-014 -2.26615e-014
rhumerus -41.3256 -8.16591 -75.0133
rradius 38.9042
rwrist 1.98174
rhand -4.26443 390.295
rfingers 7.12502
rthumb 21.5 1.46798
lclavicle 4.07012e-014 -2.26615e-014
lhumerus -32.7657 0.473266 82.369
lradius 36.5894
lwrist 4.89898
lhand -23.8912 20.3281
lfingers 7.12502
lthumb 2.58243 50.2922
rfemur -16.9723 3.28792 5.19419
rtibia 42.5576
rfoot -18.3259 -23.1499
rtoes 17.9686
lfemur -18.8802 -1.75328 -18.7077
ltibia 27.9386
lfoot -9.92417 -0.745997
ltoes 1.09843
324
root 11.2956 18.2319 -5.37616 311.344 -82.2867 52.9365
lowerback 12.9507 3.9281 -7.57554
upperback 1.00048 3.93672 -1.34967
thorax -6.62699 2.08262 2.09126
lowerneck 3.29196 16.697 7.7415
upperneck 21.7095 26.1204 -19.8674
head 10.2313 11.3752 -5.57003
rclavicle 9.44227e-016 9.74045e-015
rhumerus -41.2582 -8.63993 -74.8162
rradius 38.8516
rwrist 2.61053
rhand -4.46484 389.988
rfingers 7.12502
rthumb 21.3075 1.13905
lclavicle 9.44227e-016 9.74045e-015
lhumerus -32.8464 0.211448 82.1978
lradius 36.1395
lwrist 4.92473
lhand -23.0283 20.8202
lfingers 7.12502
lthumb 3.41576 50.7725
rfemur -16.8288 4.59819 4.18545
rtibia 41.0429
rfoot -17.6255 -22.6122
rtoes 15.8155
lfemur -19.333 -1.34011 -18.956
ltibia 27.8788
lfoot -9.4008 -1.17457
ltoes -1.72735
325
root 11.2464 18.2212 -5.4447 311.692 -82.2107 52.3345
lowerback 12.6549 4.03673 -7.45616
upperback 1.09425 4.13277 -1.33319
thorax -6.37296 2.1676 2.02529
lowerneck 3.35676 16.5276 7.98455
upperneck 21.7014 25.9188 -19.9997
head 10.2363 11.2985 -5.68749
rclavicle 1.1281e-014 2.88238e-014
rhumerus -41.3049 -8.9469 -74.7751
rradius 38.9196
rwrist 3.19828
rhand -5.26275 389.013
rfingers 7.12502
rthumb 20.5409 0.0792698
lclavicle 1.1281e-014 2.88238e-014
lhumerus -33.0029 0.480554 81.9098
lradius 36.0132
lwrist 4.58171
lhand -22.657 22.1488
lfingers 7.12502
lthumb 3.77433 52.0951
rfemur -15.9809 6.50607 3.70806
rtibia 39.3966
rfoot -16.6488 -22.2794
rtoes 12.9989
lfemur -18.9433 -1.75065 -18.7434
ltibia 27.8175
lfoot -9.57211 -0.830447
ltoes -2.16417
326
root 11.262 18.2096 -5.56635 317.075 -81.2939 47.3685
lowerback 12.6886 3.86343 -7.92569
upperback 0.80226 3.82801 -1.2934
thorax -6.71051 2.05141 2.37341
lowerneck 3.22822 16.3772 8.25026
upperneck 21.9464 25.7605 -19.9689
head 10.3552 11.2218 -5.73001
rclavicle 4.33848e-014 -3.43897e-014
rhumerus -41.3599 -8.66394 -74.9861
rradius 39.0877
rwrist 2.69717
rhand -6.14447 387.194
rfingers 7.12502
rthumb 19.6935 -1.82852
lclavicle 4.33848e-014 -3.43897e-014
lhumerus -33.1907 0.470658 81.5487
lradius 35.8928
lwrist 4.47273
lhand -22.7808 22.5411
lfingers 7.12502
lthumb 3.65478 52.4895
rfemur -15.6646 8.01005 3.24827
rtibia 37.752
rfoot -15.9279 -22.3666
rtoes 12.702
lfemur -19.7655 -0.946894 -18.6078
ltibia 27.8913
lfoot -8.71297 -2.52143
ltoes -4.66789
327
root 11.1959 18.2054 -5.6131 314.669 -81.4369 49.415
lowerback 12.2851 4.02856 -7.66342
upperback 0.900872 4.12361 -1.37355
thorax -6.38463 2.1765 2.11311
lowerneck 3.27074 16.3118 8.1835
upperneck 22.0113 25.6098 -19.6332
head 10.2774 11.1727 -5.63318
rclavicle -1.60519e-014 2.56432e-014
rhumerus -41.3518 -8.29877 -75.1309
rradius 39.0296
rwrist 2.05183
rhand -7.26649 384.578
rfingers 7.12502
rthumb 18.6145 -4.55175
lclavicle -1.60519e-014 2.56432e-014
lhumerus -33.6066 0.537578 81.089
lradius 35.871
lwrist 4.54372
lhand -22.6454 22.3387
lfingers 7.12502
lthumb 3.78551 52.2848
rfemur -14.6633 10.5668 2.51504
rtibia 35.9761
rfoot -15.5707 -21.4438
rtoes 13.1056
lfemur -19.0486 -2.19353 -18.4881
ltibia 27.8715
lfoot -9.4273 -1.32521
ltoes -5.32695
